# Blender 5.0.1
# www.blender.org
mtllib table.mtl
o table
v 2.892041 0.160097 -4.525824
v 2.892041 -0.160097 -4.525824
v 2.892041 0.160097 4.526371
v 2.892041 -0.160097 4.526371
v -2.861119 0.160097 -4.525824
v -2.861119 -0.160097 -4.525824
v -2.861119 0.160097 4.526371
v -2.861119 -0.160097 4.526371
v 2.550841 -0.160097 -4.525824
v -2.519918 -0.160097 -4.525824
v 2.550841 0.160097 4.526371
v -2.519918 0.160097 4.526371
v 2.550841 -0.160097 4.526371
v -2.519918 -0.160097 4.526371
v -2.519918 0.160097 -4.525824
v 2.550841 0.160097 -4.525824
v 2.892041 -0.160097 -3.542179
v 2.892041 -0.160097 3.542726
v -2.861119 0.160097 -3.542179
v -2.861119 0.160097 3.542726
v 2.892041 0.160097 3.542726
v 2.892041 0.160097 -3.542179
v -2.861119 -0.160097 3.542726
v -2.861119 -0.160097 -3.542179
v 2.550841 -0.160097 3.542726
v 2.550841 -0.160097 -3.542179
v -2.519918 -0.160097 -3.542179
v -2.519918 -0.160097 3.542726
v -2.519918 0.160097 3.542726
v -2.519918 0.160097 -3.542179
v 2.550841 0.160097 -3.542179
v 2.550841 0.160097 3.542726
v -2.861119 -3.042054 -4.525824
v -2.519918 -3.042054 -4.525824
v -2.519918 -3.042054 4.526371
v -2.861119 -3.042054 4.526371
v 2.550841 -3.042054 -4.525824
v 2.892041 -3.042054 -4.525824
v 2.892041 -3.042054 4.526371
v 2.550841 -3.042054 4.526371
v -2.519918 -3.042054 3.542726
v -2.861119 -3.042054 3.542726
v -2.861119 -3.042054 -3.542179
v -2.519918 -3.042054 -3.542179
v 2.892041 -3.042054 3.542726
v 2.550841 -3.042054 3.542726
v 2.550841 -3.042054 -3.542179
v 2.892041 -3.042054 -3.542179
vn -0.0000 -0.0000 -1.0000
vn -0.0000 -0.0000 1.0000
vn -0.0000 -1.0000 -0.0000
vn -0.0000 1.0000 -0.0000
vn 1.0000 -0.0000 -0.0000
vn -1.0000 -0.0000 -0.0000
vt 0.625000 0.485173
vt 0.375000 0.485173
vt 0.375000 0.264827
vt 0.625000 0.264827
vt 0.625000 0.985173
vt 0.375000 0.985173
vt 0.375000 0.764827
vt 0.625000 0.764827
vt 0.375000 0.250000
vt 0.625000 0.250000
vt 0.625000 0.500000
vt 0.375000 0.500000
vt 0.625000 1.000000
vt 0.375000 1.000000
vt 0.375000 0.750000
vt 0.625000 0.750000
vt 0.139827 0.722834
vt 0.125000 0.722834
vt 0.125000 0.527166
vt 0.139827 0.527166
vt 0.375000 0.722834
vt 0.360173 0.722834
vt 0.360173 0.527166
vt 0.375000 0.527166
vt 0.639827 0.722834
vt 0.625000 0.722834
vt 0.625000 0.527166
vt 0.639827 0.527166
vt 0.875000 0.722834
vt 0.860173 0.722834
vt 0.860173 0.527166
vt 0.875000 0.527166
vt 0.625000 0.222834
vt 0.375000 0.222834
vt 0.375000 0.027166
vt 0.625000 0.027166
vt 0.139827 0.750000
vt 0.860173 0.500000
vt 0.875000 0.500000
vt 0.375000 0.000000
vt 0.625000 0.000000
vt 0.875000 0.750000
vt 0.860173 0.750000
vt 0.639827 0.750000
vt 0.639827 0.500000
vt 0.360173 0.750000
vt 0.360173 0.500000
vt 0.139827 0.500000
vt 0.125000 0.750000
vt 0.125000 0.500000
s 0
usemtl Material
f 16/1/1 9/2/1 10/3/1 15/4/1
f 12/5/2 14/6/2 13/7/2 11/8/2
f 6/9/1 5/10/1 15/4/1 10/3/1
f 9/2/1 16/1/1 1/11/1 2/12/1
f 14/6/2 12/5/2 7/13/2 8/14/2
f 4/15/2 3/16/2 11/8/2 13/7/2
f 28/17/3 23/18/3 24/19/3 27/20/3
f 18/21/3 25/22/3 26/23/3 17/24/3
f 32/25/4 21/26/4 22/27/4 31/28/4
f 20/29/4 29/30/4 30/31/4 19/32/4
f 29/30/4 32/25/4 31/28/4 30/31/4
f 25/22/3 28/17/3 27/20/3 26/23/3
f 21/26/5 18/21/5 17/24/5 22/27/5
f 19/33/6 24/34/6 23/35/6 20/36/6
f 28/17/5 14/37/5 35/37/5 41/17/5
f 2/12/5 1/11/5 22/27/5 17/24/5
f 14/6/2 8/14/2 36/14/2 35/6/2
f 18/21/5 21/26/5 3/16/5 4/15/5
f 15/38/4 5/39/4 19/32/4 30/31/4
f 8/40/6 7/41/6 20/36/6 23/35/6
f 24/34/6 19/33/6 5/10/6 6/9/6
f 29/30/4 20/29/4 7/42/4 12/43/4
f 21/26/4 32/25/4 11/44/4 3/16/4
f 1/11/4 16/45/4 31/28/4 22/27/4
f 17/24/2 26/23/2 47/23/2 48/24/2
f 6/9/1 10/3/1 34/3/1 33/9/1
f 25/22/3 13/46/3 14/37/3 28/17/3
f 9/47/3 26/23/3 27/20/3 10/48/3
f 29/30/4 12/43/4 11/44/4 32/25/4
f 15/38/4 30/31/4 31/28/4 16/45/4
f 46/22/3 45/21/3 39/15/3 40/46/3
f 37/47/3 38/12/3 48/24/3 47/23/3
f 42/18/3 41/17/3 35/37/3 36/49/3
f 33/50/3 34/48/3 44/20/3 43/19/3
f 23/18/1 28/17/1 41/17/1 42/18/1
f 13/46/6 25/22/6 46/22/6 40/46/6
f 10/48/5 27/20/5 44/20/5 34/48/5
f 8/40/6 23/35/6 42/35/6 36/40/6
f 9/2/1 2/12/1 38/12/1 37/2/1
f 18/21/5 4/15/5 39/15/5 45/21/5
f 27/20/2 24/19/2 43/19/2 44/20/2
f 4/15/2 13/7/2 40/7/2 39/15/2
f 2/12/5 17/24/5 48/24/5 38/12/5
f 24/34/6 6/9/6 33/9/6 43/34/6
f 25/22/1 18/21/1 45/21/1 46/22/1
f 26/23/6 9/47/6 37/47/6 47/23/6
